<svg width="24" height="24" viewBox="0 0 24 24" fill="none" xmlns="http://www.w3.org/2000/svg">
<path d="M5.47969 10.3822L1.59375 6.49629L5.47969 2.61035L6.47766 3.60973L4.29516 5.79082H16.1395C17.6739 5.79243 19.1449 6.40277 20.2297 7.48785C21.3146 8.57294 21.9245 10.0441 21.9258 11.5785H20.5144C20.5131 10.4186 20.0518 9.30654 19.2316 8.48637C18.4115 7.66619 17.2994 7.20487 16.1395 7.20363H4.29516L6.47766 9.38613L5.47969 10.3822ZM18.5203 13.6166L17.5223 14.616L19.7048 16.7985H7.86047C6.70033 16.7972 5.58807 16.3357 4.76786 15.5152C3.94765 14.6948 3.48649 13.5824 3.48563 12.4222H2.07422C2.07546 13.9566 2.68543 15.4278 3.77026 16.5129C4.85508 17.5979 6.32611 18.2083 7.86047 18.2099H19.7048L17.5223 20.391L18.5203 21.3889L22.4062 17.503L18.5203 13.6166Z" fill="#3772FF"/>
</svg>
