<svg width="20" height="20" viewBox="0 0 20 20" fill="none" xmlns="http://www.w3.org/2000/svg">
<path d="M10 20C15.5228 20 20 15.5228 20 10C20 4.47715 15.5228 0 10 0C4.47715 0 0 4.47715 0 10C0 15.5228 4.47715 20 10 20Z" fill="#35B972"/>
<path fill-rule="evenodd" clip-rule="evenodd" d="M14.0625 11.9712C14.0625 13.5775 12.7587 14.6438 10.8337 14.8044V16.25H9.515V14.79C8.21293 14.6432 6.9758 14.1431 5.9375 13.3438L6.9075 12.015C7.77188 12.6869 8.59 13.125 9.57562 13.2712V10.4087C7.3625 9.85375 6.33187 9.05062 6.33187 7.40062C6.33187 5.82375 7.62 4.74313 9.515 4.59688V3.75H10.8337V4.62625C11.8645 4.74074 12.8471 5.12346 13.6837 5.73625L12.8344 7.10875C12.1675 6.62687 11.4856 6.32 10.7731 6.17437V8.94875C13.0775 9.50375 14.0625 10.3944 14.0625 11.9712ZM9.575 8.64187V6.07188C8.62062 6.145 8.12063 6.65625 8.12063 7.29875C8.12063 7.91125 8.40812 8.30625 9.57562 8.6425L9.575 8.64187ZM12.2738 12.0731C12.2738 11.4169 11.955 11.0225 10.7731 10.6862V13.33C11.7281 13.2562 12.2738 12.7744 12.2738 12.0738V12.0731Z" fill="white"/>
</svg>
